<?xml version="1.0" encoding="UTF-8" standalone="no"?>
<svg
   viewBox="0 0 348 348"
   fill="none"
   version="1.1"
   id="svg6"
   sodipodi:docname="Module Name.svg"
   inkscape:version="1.1.2 (b8e25be833, 2022-02-05)"
   xmlns:inkscape="http://www.inkscape.org/namespaces/inkscape"
   xmlns:sodipodi="http://sodipodi.sourceforge.net/DTD/sodipodi-0.dtd"
   xmlns="http://www.w3.org/2000/svg"
   xmlns:svg="http://www.w3.org/2000/svg">
  <defs
     id="defs10" />
  <sodipodi:namedview
     id="namedview8"
     pagecolor="#ffffff"
     bordercolor="#666666"
     borderopacity="1.0"
     inkscape:pageshadow="2"
     inkscape:pageopacity="0.0"
     inkscape:pagecheckerboard="0"
     showgrid="false"
     inkscape:zoom="1.3706897"
     inkscape:cx="174"
     inkscape:cy="174"
     inkscape:window-width="1024"
     inkscape:window-height="706"
     inkscape:window-x="-8"
     inkscape:window-y="-8"
     inkscape:window-maximized="1"
     inkscape:current-layer="svg6" />
  <path
     d="M5.079 5.776h336.913v337.67H5.08z"
     stroke-width="2"
     stroke="#000"
     id="path2" />
  <path
     d="M282.734 40.554c0-8.376 6.966-15.165 15.56-15.165 4.126 0 8.084 1.597 11.001 4.441 2.918 2.844 4.558 6.702 4.558 10.724 0 8.376-6.966 15.165-15.56 15.165-8.593 0-15.559-6.79-15.559-15.165z"
     stroke-width="2"
     stroke="#000"
     id="path4" />
  <rect
     style="fill:#000000"
     id="rect34"
     width="238.56604"
     height="53.257862"
     x="21.886793"
     y="23.345911" />
  <rect
     style="fill:#000000"
     id="rect36"
     width="59.094341"
     height="56.905659"
     x="22.616352"
     y="118.18867" />
  <path
     style="fill:#000000"
     id="path325"
     d="m 78.829962,293.01649 c -4.193441,0.25194 -8.323344,1.13697 -12.493411,1.65052 -3.865696,0.49496 -7.76378,0.53673 -11.650359,0.72376 -3.650455,0.22823 -7.302209,0.41851 -10.957888,0.5347 -2.503897,0.0628 -5.008494,0.0536 -7.512842,0.0371 -1.581227,-0.0125 -3.162485,-0.0195 -4.743754,-0.0231 -0.242402,-3.7e-4 -0.484803,-7.3e-4 -0.727205,-10e-4 0,0 -8.760708,6.36409 -8.760708,6.36409 v 0 c 0.242819,-3e-5 0.485637,-6e-5 0.728456,-8e-5 1.600075,-7.3e-4 3.200165,-0.002 4.800197,-0.015 2.559026,-0.0229 5.118208,-0.0538 7.676512,-0.11969 3.70642,-0.098 7.404096,-0.34213 11.101561,-0.61188 3.893726,-0.20776 7.811056,-0.0627 11.679219,-0.64815 2.25939,-0.29136 4.510021,-0.6059 6.760245,-0.96144 0.342701,-0.0541 3.576102,-0.57538 4.089029,-0.61014 0.414066,-0.0281 0.829364,0.0333 1.244046,0.0499 0,0 8.766902,-6.36953 8.766902,-6.36953 z" />
  <path
     style="fill:#000000"
     id="path327"
     d="m 26.584786,278.7246 c -2.399284,1.41573 -4.234303,3.41442 -5.990625,5.53696 -1.734782,1.89668 -2.72188,4.29686 -4.196908,6.35981 -0.810961,1.27103 -1.649067,2.50853 -2.524912,3.73429 -1.870638,2.2804 1.000784,-1.28873 -1.020312,1.49392 -1.301591,1.79203 -0.04036,-0.31725 -1.296074,1.5271 -0.432806,0.63569 -0.621433,1.13518 -0.933843,1.82987 -0.7730041,2.41687 -0.376055,4.98891 0.435921,7.33717 0.984648,2.29904 2.524102,4.18083 4.339469,5.86773 3.803259,2.90862 7.9998,5.23693 12.155575,7.59242 3.098178,1.73492 6.28744,3.28095 9.350383,5.08005 0,0 8.89744,-5.77107 8.89744,-5.77107 v 0 c -3.119594,-1.81618 -6.350008,-3.36254 -9.592096,-4.94382 -4.070651,-2.27285 -8.153521,-4.55839 -11.783853,-7.51084 -1.615183,-1.62828 -3.032969,-3.38414 -3.996447,-5.48489 -0.729606,-2.15776 -0.997165,-4.47276 -0.0033,-6.60315 0.944445,-1.7041 2.271732,-3.14605 3.388246,-4.73824 0.839933,-1.22916 1.656248,-2.47317 2.441997,-3.7381 1.255266,-2.13493 2.436837,-4.31377 4.105758,-6.17231 1.838096,-2.1158 3.896959,-3.97655 6.382603,-5.3162 0,0 -10.159006,3.9193 -10.159006,3.9193 z" />
  <path
     style="fill:#000000"
     id="path329"
     d="m 266.88433,304.50003 c 4.05252,-0.34881 8.10372,-0.71706 12.15889,-1.03712 3.63247,-0.28834 7.22051,-0.92992 10.8249,-1.43922 2.37419,-0.34553 4.77377,-0.42507 7.16874,-0.47625 2.36477,-0.0376 4.72974,-0.007 7.09459,-0.0344 1.31855,-0.007 2.63708,0.005 3.95557,0.0154 0,0 8.6478,-6.28172 8.6478,-6.28172 v 0 c -1.32808,0.008 -2.65621,0.0168 -3.98431,0.006 -2.34971,-0.0354 -4.69964,-0.025 -7.04956,-0.0212 -2.44386,0.0247 -4.88805,0.11385 -7.31624,0.4112 -3.66473,0.56481 -7.30798,1.26697 -10.99865,1.65503 -3.90307,0.3232 -7.80354,0.6344 -11.71531,0.81832 0,0 -8.78642,6.38371 -8.78642,6.38371 z" />
  <path
     style="fill:#000000"
     id="path331"
     d="m 302.12026,281.88669 c 2.13174,1.37577 4.13935,2.87828 6.03743,4.56253 1.20547,1.15718 2.52557,2.25108 3.50001,3.62605 0.53731,0.75817 0.92857,1.61664 1.34446,2.44131 1.36228,2.44002 1.8617,5.14788 2.43115,7.84001 0.51765,2.22626 0.67802,4.5052 0.77735,6.78141 0.0333,2.32828 0.20629,4.65324 -0.31417,6.93676 -0.39756,2.33314 -1.84499,4.23507 -3.47944,5.86945 -1.39431,1.16194 -0.66363,0.59175 -2.19695,1.70428 0,0 9.86662,-3.93319 9.86662,-3.93319 v 0 c 1.53736,-1.23039 0.80837,-0.59366 2.19216,-1.90423 1.59543,-1.8821 2.89831,-3.93013 3.26729,-6.42203 0.38697,-2.36031 0.20153,-4.74597 0.14689,-7.12827 -0.0772,-2.34351 -0.22997,-4.6837 -0.83909,-6.96088 -0.61664,-2.76518 -1.27605,-5.5074 -2.62577,-8.03129 -0.43464,-0.89494 -0.85541,-1.84052 -1.40924,-2.67307 -0.97243,-1.46181 -2.36727,-2.56581 -3.63237,-3.75452 -1.85455,-1.64049 -3.74846,-3.2249 -5.77851,-4.64591 0,0 -9.28782,5.69159 -9.28782,5.69159 z" />
</svg>
