<?xml version="1.0" encoding="UTF-8" standalone="no"?>
<svg
   viewBox="0 0 348 348"
   fill="none"
   version="1.1"
   id="svg6"
   sodipodi:docname="Module Name.svg"
   inkscape:version="1.1.2 (b8e25be833, 2022-02-05)"
   xmlns:inkscape="http://www.inkscape.org/namespaces/inkscape"
   xmlns:sodipodi="http://sodipodi.sourceforge.net/DTD/sodipodi-0.dtd"
   xmlns="http://www.w3.org/2000/svg"
   xmlns:svg="http://www.w3.org/2000/svg">
  <defs
     id="defs10" />
  <sodipodi:namedview
     id="namedview8"
     pagecolor="#ffffff"
     bordercolor="#666666"
     borderopacity="1.0"
     inkscape:pageshadow="2"
     inkscape:pageopacity="0.0"
     inkscape:pagecheckerboard="0"
     showgrid="false"
     inkscape:zoom="1.3706897"
     inkscape:cx="174"
     inkscape:cy="174"
     inkscape:window-width="1024"
     inkscape:window-height="706"
     inkscape:window-x="-8"
     inkscape:window-y="-8"
     inkscape:window-maximized="1"
     inkscape:current-layer="svg6" />
  <path
     d="M5.079 5.776h336.913v337.67H5.08z"
     stroke-width="2"
     stroke="#000"
     id="path2" />
  <path
     d="M282.734 40.554c0-8.376 6.966-15.165 15.56-15.165 4.126 0 8.084 1.597 11.001 4.441 2.918 2.844 4.558 6.702 4.558 10.724 0 8.376-6.966 15.165-15.56 15.165-8.593 0-15.559-6.79-15.559-15.165z"
     stroke-width="2"
     stroke="#000"
     id="path4" />
  <rect
     style="fill:#000000"
     id="rect34"
     width="45.232704"
     height="43.044025"
     x="207.19496"
     y="70.767296" />
  <ellipse
     style="fill:#000000"
     id="path80"
     cx="88.276726"
     cy="98.490562"
     rx="59.094341"
     ry="56.176102" />
  <rect
     style="fill:#000000"
     id="rect104"
     width="72.955978"
     height="69.308174"
     x="13.132075"
     y="226.89308" />
  <rect
     style="fill:#000000"
     id="rect186"
     width="72.955978"
     height="69.308174"
     x="102.86792"
     y="216.67924" />
  <rect
     style="fill:#000000"
     id="rect188"
     width="72.955978"
     height="69.308174"
     x="175.8239"
     y="216.67924" />
  <rect
     style="fill:#000000"
     id="rect190"
     width="72.955978"
     height="69.308174"
     x="260.45282"
     y="230.54088" />
</svg>
